<svg width="549" height="103" viewBox="0 0 549 103" fill="none" xmlns="http://www.w3.org/2000/svg">
<path d="M7.07129 0.0774536H30.3991L7.07129 23.4381V0.0774536Z" fill="#FFA310"/>
<path d="M7.07129 47.2524L54.1799 0.0774536H79.1308L7.07129 72.2386V47.2524Z" fill="#FFA310"/>
<path d="M0.880371 102.441L102.194 0.984344V66.5304C102.194 86.3378 86.1137 102.479 66.2964 102.479H0.880371V102.441ZM43.497 84.7502H66.2964C76.3372 84.7502 84.5283 76.5475 84.5283 66.4926V43.6611L43.497 84.7502Z" fill="#FFA310"/>
<path d="M126.493 0.353195H150.725C164.693 0.389759 171.677 7.94011 171.677 23.0042V80.1209C171.677 95.1485 164.36 102.681 149.724 102.717H126.493V0.353195ZM142.221 15.655V87.4153H149.113C153.67 87.4153 155.949 84.9839 155.949 80.1209V23.0042C155.949 18.1047 153.67 15.655 149.113 15.655H142.221Z" fill="white"/>
<path d="M183.606 0.353195H199.334V102.717H183.606V0.353195Z" fill="white"/>
<path d="M256.447 80.0661C256.447 95.1302 248.907 102.681 233.827 102.717C218.784 102.717 211.262 95.1668 211.262 80.0661V22.9494C211.262 7.88526 218.784 0.353195 233.827 0.353195C248.907 0.353195 256.447 7.88526 256.447 22.9494V37.4285H240.718V22.9494C240.718 18.123 238.44 15.6916 233.882 15.655H233.771C229.251 15.655 226.991 18.0865 226.991 22.9494V80.0661C226.991 84.929 229.269 87.3605 233.827 87.3605C238.421 87.3605 240.718 84.929 240.718 80.0661V63.5154H233.825L238.149 48.1587H256.447V80.0661Z" fill="white"/>
<path d="M268.375 0.353195H284.104V102.717H268.375V0.353195Z" fill="white"/>
<path d="M334.45 71.6098L354.244 0.0774536H367.062V102.479H355.218V37.7417L338.668 102.479H330.61L313.628 38.1173V102.479H301.622V0.0774536H314.493L334.45 71.6098Z" fill="white"/>
<path d="M418.747 81.2302C418.747 95.36 411.716 102.443 397.655 102.479C383.593 102.479 376.562 95.3958 376.562 81.2302V21.2722C376.562 7.14237 383.593 0.0774536 397.655 0.0774536C411.716 0.0774536 418.747 7.14237 418.747 21.2722V81.2302ZM406.254 21.2722C406.254 15.2983 403.405 12.2935 397.709 12.2577H397.601C391.904 12.2577 389.055 15.2626 389.055 21.2722V81.2302C389.055 87.2398 391.922 90.2446 397.655 90.2446C403.387 90.2446 406.254 87.2398 406.254 81.2302V21.2722Z" fill="white"/>
<path d="M459.837 102.479H440.962L429.983 38.4963L425.116 0.0774536H437.717L450.372 90.0837L463.028 0.0774536H475.737L470.761 38.6036L459.837 102.479Z" fill="white"/>
<path d="M485.193 0.0774536H497.686V102.479H485.193V0.0774536Z" fill="white"/>
<path d="M544.563 45.1342V57.3682H522.822V90.2983H548.079V102.479H510.329V0.0774536H548.079V12.2577H522.822V45.1342H544.563Z" fill="white"/>
</svg>
